<?xml version="1.0" encoding="utf-8"?>
<!-- Generator: Adobe Illustrator 18.1.1, SVG Export Plug-In . SVG Version: 6.00 Build 0)  -->
<svg version="1.1" id="Layer_1" xmlns="http://www.w3.org/2000/svg" xmlns:xlink="http://www.w3.org/1999/xlink" x="0px" y="0px"
	 viewBox="0 0 1920 1920" enable-background="new 0 0 1920 1920" xml:space="preserve">
<g>
	<path fill="#0000FF" d="M1321.3,960l-346.5,263.6c-4.9-0.4-9.9-0.8-14.8-0.8c-72.7,0-131.4,58.7-131.4,131.4
		c0,72.7,58.7,131.4,131.4,131.4s131.4-58.7,131.4-131.4c0-4.9-0.4-9.9-0.8-14.8l263.6-346.5L1321.3,960z"/>
	<path fill="#0000FF" d="M960,303.1c-507.9,0-919.7,411.8-919.7,919.7c0,141.2,32,274.7,88.7,394.1h148.2
		c-63.2-109.2-99.4-232.4-104.7-361.3h130.6v-65.7H172.5c4.9-118.2,35.7-232,89.5-334.2L375,921l32.8-57.1l-112.9-64.9
		c30.4-47.6,66.5-92.8,107.6-133.8c41.9-41.5,87.4-78,135.9-108.8l64.9,112.1l57.1-32.8l-64.9-112.1
		c101.8-53.4,214.3-83.3,331.7-88.3v130.6h65.7V435.3c117.4,4.9,229.9,35.3,331.7,88.3l-64.5,112.1l57.1,32.8l64.9-112.1
		c48.4,30.8,94,67.3,135.9,108.8c41.1,41.1,76.8,85.8,107.6,133.8L1513,863.9l32.8,57.1l112.9-65.3c53.8,102.2,84.6,216,89.5,334.2
		h-131.4v65.7h130.6c-5.3,128.9-41.5,252.1-104.7,361.3H1791c56.7-119.5,88.7-252.9,88.7-394.1C1879.7,714.9,1467.9,303.1,960,303.1
		z"/>
</g>
</svg>
