<?xml version="1.0" standalone="no"?>
<!DOCTYPE svg PUBLIC "-//W3C//DTD SVG 20010904//EN"
 "http://www.w3.org/TR/2001/REC-SVG-20010904/DTD/svg10.dtd">
<svg version="1.0" xmlns="http://www.w3.org/2000/svg"
 width="700.000000pt" height="700.000000pt" viewBox="0 0 700.000000 700.000000"
 preserveAspectRatio="xMidYMid meet">
<metadata>
Created by potrace 1.11, written by Peter Selinger 2001-2013
</metadata>
<g transform="translate(0.000000,700.000000) scale(0.100000,-0.100000)"
fill="#000000" stroke="none">
<path d="M3427 5894 c-1 -1 -58 -4 -127 -8 -69 -3 -141 -8 -160 -11 -19 -2
-55 -7 -80 -10 -41 -5 -236 -39 -285 -49 -56 -12 -126 -30 -180 -46 -33 -10
-87 -26 -120 -36 -53 -15 -173 -59 -230 -83 -11 -5 -49 -21 -85 -36 -598 -254
-1149 -730 -1507 -1304 -161 -258 -306 -587 -384 -871 -7 -25 -14 -49 -15 -55
-2 -5 -6 -23 -9 -40 -3 -16 -11 -48 -17 -70 -5 -22 -12 -51 -14 -65 -3 -14
-11 -61 -18 -105 -20 -112 -28 -176 -41 -325 -5 -64 -6 -421 0 -465 2 -16 6
-63 10 -104 27 -322 125 -696 265 -1016 l40 -90 263 1 c144 1 265 2 269 3 3 0
-10 31 -30 69 -124 226 -249 569 -288 792 -4 25 -8 47 -9 50 -2 8 -16 93 -20
120 -8 49 -14 116 -20 198 l-7 82 29 1 c15 0 121 0 236 1 114 0 207 3 208 6 5
33 3 224 -2 228 -4 2 -112 5 -239 6 l-231 1 6 86 c3 47 7 97 10 111 2 14 7 50
10 80 4 30 9 64 11 75 2 11 9 47 14 80 37 210 135 499 242 718 l33 67 175
-101 c96 -55 189 -109 205 -119 l31 -19 57 98 c31 54 57 102 57 107 0 11 -11
18 -105 69 -38 21 -74 41 -80 45 -11 9 -65 39 -145 83 -30 16 -59 33 -64 38
-10 9 16 52 103 169 121 164 314 369 456 486 33 27 62 51 65 54 28 28 250 184
254 178 2 -1 54 -92 117 -200 63 -109 118 -198 123 -198 5 0 53 25 106 56 l98
57 -114 197 c-63 108 -114 202 -114 207 0 14 183 98 338 155 242 88 516 147
765 164 l97 6 0 -236 c0 -218 1 -236 18 -237 71 -3 199 -4 210 -1 9 3 12 60
12 239 l0 235 93 -6 c50 -3 103 -8 117 -10 14 -2 48 -7 75 -10 229 -26 574
-129 812 -242 l112 -53 -110 -193 c-61 -106 -115 -198 -120 -204 -6 -8 23 -29
91 -68 55 -31 105 -56 109 -56 5 0 46 64 90 143 45 78 87 151 94 162 7 10 22
36 35 57 l23 38 62 -42 c253 -170 499 -401 682 -641 111 -147 141 -197 124
-208 -8 -5 -97 -57 -199 -116 -102 -59 -187 -108 -188 -109 -2 -1 13 -33 33
-71 21 -37 44 -81 53 -96 8 -16 20 -31 27 -33 11 -5 308 158 377 207 15 10 29
19 31 19 11 0 106 -212 165 -370 35 -93 93 -299 107 -380 3 -19 10 -54 15 -77
5 -22 12 -65 16 -95 3 -29 8 -64 10 -78 2 -14 7 -68 10 -122 l6 -96 -231 0
c-126 0 -234 -3 -239 -6 -5 -3 -8 -56 -8 -118 l1 -113 200 -2 c110 -1 217 -2
239 -2 l38 -1 -6 -82 c-8 -90 -10 -106 -26 -218 -19 -129 -21 -140 -55 -279
-59 -239 -178 -538 -277 -698 -11 -18 -16 -34 -11 -34 4 -1 126 -2 270 -3
l263 -1 39 90 c87 198 171 456 205 625 3 14 10 50 15 80 6 30 13 66 16 80 3
14 8 45 11 70 3 25 7 52 9 60 2 8 7 51 10 95 4 44 9 96 11 115 4 46 5 395 0
440 -2 19 -7 69 -10 110 -45 522 -244 1078 -548 1533 -62 92 -172 240 -218
292 -15 16 -51 57 -80 90 -249 285 -625 572 -990 755 -81 41 -125 60 -265 120
-192 81 -570 179 -790 205 -27 3 -66 8 -85 10 -93 12 -424 26 -433 19z"/>
<path d="M4648 3372 c-91 -70 -226 -173 -300 -228 -73 -56 -279 -213 -458
-350 l-325 -248 -79 -7 c-103 -9 -158 -25 -226 -65 -156 -91 -244 -256 -234
-439 12 -251 215 -445 467 -447 137 -1 248 43 340 136 91 90 136 191 143 321
l4 76 157 207 c164 216 279 367 316 416 67 87 275 360 369 484 59 78 108 146
108 150 0 8 -40 52 -86 94 l-29 26 -167 -126z"/>
</g>
</svg>
